# xmcd
#
# Track frame offsets:
#	150
#	17120
#	36977
#	58267
#	75610
#	101647
#	114755
#	133180
#	147977
#	170250
#
# Disc length: 2493 seconds
#
# Revision: 1
# Processed by: cddbd v1.5.1PL0 Copyright (c) Steve Scherf et al.
# Submitted via: audiograbber 1.83.01
#
DISCID=8509bb0a
DTITLE=Diego Marulanda - El Otro Lado
DYEAR=2000
DGENRE=World
TTITLE0=El Durazno
TTITLE1=Mi Bayeton
TTITLE2=Cancion Triste
TTITLE3=Lunes De Zapatero
TTITLE4=Arrullo
TTITLE5=Mi Tiple
TTITLE6=Azul
TTITLE7=Camille
TTITLE8=El Patas
TTITLE9=A Ella
EXTD=
EXTT0=
EXTT1=
EXTT2=
EXTT3=
EXTT4=
EXTT5=
EXTT6=
EXTT7=
EXTT8=
EXTT9=
PLAYORDER=
